<?xml version="1.0" encoding="UTF-8" standalone="no"?>
<!-- Created with Inkscape (http://www.inkscape.org/) -->
<svg
   xmlns:dc="http://purl.org/dc/elements/1.1/"
   xmlns:cc="http://web.resource.org/cc/"
   xmlns:rdf="http://www.w3.org/1999/02/22-rdf-syntax-ns#"
   xmlns:svg="http://www.w3.org/2000/svg"
   xmlns="http://www.w3.org/2000/svg"
   xmlns:sodipodi="http://sodipodi.sourceforge.net/DTD/sodipodi-0.dtd"
   xmlns:inkscape="http://www.inkscape.org/namespaces/inkscape"
   version="1.0"
   width="237.38376"
   height="214.10988"
   id="svg6612"
   sodipodi:version="0.32"
   inkscape:version="0.45.1"
   sodipodi:docname="Gnus-logo.svg"
   sodipodi:docbase="/home/sphinx/images"
   inkscape:output_extension="org.inkscape.output.svg.inkscape">
  <metadata
     id="metadata2179">
    <rdf:RDF>
      <cc:Work
         rdf:about="">
        <dc:format>image/svg+xml</dc:format>
        <dc:type
           rdf:resource="http://purl.org/dc/dcmitype/StillImage" />
        <dc:title>Gnus logo</dc:title>
        <dc:date>2007-08-07</dc:date>
        <dc:creator>
          <cc:Agent>
            <dc:title>Dmitry Dzhus</dc:title>
          </cc:Agent>
        </dc:creator>
        <cc:license
           rdf:resource="http://creativecommons.org/licenses/GPL/2.0/" />
        <dc:rights>
          <cc:Agent>
            <dc:title>Free Software Foundation</dc:title>
          </cc:Agent>
        </dc:rights>
        <dc:subject>
          <rdf:Bag>
            <rdf:li>emacs</rdf:li>
            <rdf:li>gnus</rdf:li>
          </rdf:Bag>
        </dc:subject>
        <dc:contributor>
          <cc:Agent>
            <dc:title>Luis Fernandes</dc:title>
          </cc:Agent>
        </dc:contributor>
      </cc:Work>
      <cc:License
         rdf:about="http://creativecommons.org/licenses/GPL/2.0/">
        <cc:permits
           rdf:resource="http://web.resource.org/cc/Reproduction" />
        <cc:permits
           rdf:resource="http://web.resource.org/cc/Distribution" />
        <cc:requires
           rdf:resource="http://web.resource.org/cc/Notice" />
        <cc:permits
           rdf:resource="http://web.resource.org/cc/DerivativeWorks" />
        <cc:requires
           rdf:resource="http://web.resource.org/cc/ShareAlike" />
        <cc:requires
           rdf:resource="http://web.resource.org/cc/SourceCode" />
      </cc:License>
    </rdf:RDF>
  </metadata>
  <sodipodi:namedview
     inkscape:window-height="990"
     inkscape:window-width="1276"
     inkscape:pageshadow="2"
     inkscape:pageopacity="0.0"
     guidetolerance="10.0"
     gridtolerance="10.0"
     objecttolerance="10.0"
     borderopacity="1.0"
     bordercolor="#666666"
     pagecolor="#ffffff"
     id="base"
     inkscape:zoom="2.4960544"
     inkscape:cx="153.33592"
     inkscape:cy="107.31582"
     inkscape:window-x="0"
     inkscape:window-y="0"
     inkscape:current-layer="svg6612" />
  <defs
     id="defs6615" />
  <g
     transform="translate(-15.81003,3.2238848)"
     style="fill:#8c8a8c;fill-opacity:1;stroke:none"
     id="g2240">
    <path
       d="M 176.57988,37.972907 C 174.9871,39.007967 168.87448,51.953525 168.7783,53.533221 C 180.64186,73.113933 202.57955,40.078784 206.55381,24.980764 C 206.55381,24.980764 196.17124,43.179003 186.77317,43.526939 C 175.75676,43.93479 178.17554,36.935973 176.57988,37.972907 z "
       style="fill:#8c8a8c;fill-opacity:1;fill-rule:evenodd;stroke:none;stroke-width:0.125;stroke-linecap:butt;stroke-linejoin:miter;stroke-miterlimit:4;stroke-dasharray:none;stroke-opacity:1"
       id="path2242" />
    <path
       d="M 22.47173,15.758997 L 15.81003,32.485756 C 15.81003,32.485756 19.89052,42.218104 26.49069,42.838195 C 41.61737,44.259359 58.45245,15.619537 63.19409,15.758997 C 67.93574,15.898457 77.55353,23.422298 82.6657,33.922656 C 89.39535,20.759071 97.58642,14.911225 111.16839,24.667015 C 119.07042,30.342966 135.58934,52.795226 145.47559,53.901349 C 156.18021,55.099037 165.37798,44.912817 169.81138,26.288239 C 163.67513,34.237468 161.1768,37.806706 155.0286,38.212082 C 148.68317,38.630462 149.241,39.885604 127.06684,16.874679 C 104.89268,-6.1362469 94.43317,4.8811053 87.87854,14.643316 C 86.41421,13.039524 78.99699,1.01863 70.05858,1.1156811 C 63.72511,1.1844483 53.17415,16.174161 46.86414,21.616488 C 40.30897,27.270272 36.37856,28.267647 33.99471,28.294944 C 30.30074,28.339067 25.84923,26.450798 22.47173,15.758997 z "
       style="fill:#8c8a8c;fill-opacity:1;fill-rule:evenodd;stroke:none;stroke-width:0.125;stroke-linecap:butt;stroke-linejoin:round;stroke-miterlimit:4;stroke-dasharray:none;stroke-opacity:1"
       id="path2244" />
    <path
       d="M 76.60517,33.616604 C 59.9071,53.934058 59.23819,54.418087 50.46092,68.860929 C 41.68365,83.303771 39.35397,92.905012 43.4733,96.486252 C 47.62389,100.09467 55.01913,100.29382 64.07871,93.597586 C 76.68602,83.936084 93.51416,70.148169 98.13382,58.409876 C 99.33455,55.358876 77.4725,76.054153 68.69926,81.186233 C 63.43563,84.265304 56.36004,85.075126 52.55923,81.397725 C 44.80291,73.893236 79.52343,36.77475 76.60517,33.616604 z "
       style="fill:#8c8a8c;fill-opacity:1;fill-rule:evenodd;stroke:none;stroke-width:0.125;stroke-linecap:butt;stroke-linejoin:miter;stroke-miterlimit:4;stroke-dasharray:none;stroke-opacity:1"
       id="path2246" />
    <path
       d="M 101.40617,64.709511 C 101.3713,63.070854 109.84351,50.554306 111.30784,50.066195 C 132.55351,64.354287 121.48844,101.10862 114.51543,104.3162 C 114.51543,104.3162 115.7357,88.557199 112.56298,78.655527 C 109.39026,68.753854 101.4411,66.351131 101.40617,64.709511 z "
       style="fill:#8c8a8c;fill-opacity:1;fill-rule:evenodd;stroke:none;stroke-width:0.125;stroke-linecap:butt;stroke-linejoin:miter;stroke-miterlimit:4;stroke-dasharray:none;stroke-opacity:1"
       id="path2248" />
    <path
       d="M 212.01995,32.790058 C 210.0143,24.25611 219.12924,1.1854142 230.75546,1.1854142 C 259.78347,1.1854142 245.6869,47.473559 240.02956,64.570053 C 226.22301,100.34158 217.47477,153.8249 216.87918,158.42673 C 216.15214,164.0442 207.47903,179.09487 211.85861,154.24293 C 216.23819,129.39099 224.1069,100.38994 233.56074,66.549824 C 238.51906,48.801431 244.54954,17.14762 227.7868,17.100791 C 219.23545,16.991458 219.72047,23.025811 212.01995,32.790058 z "
       style="fill:#8c8a8c;fill-opacity:1;fill-rule:evenodd;stroke:none;stroke-width:0.125;stroke-linecap:butt;stroke-linejoin:miter;stroke-miterlimit:4;stroke-dasharray:none;stroke-opacity:1"
       id="path2250" />
  </g>
  <g
     style="fill:#cecece;fill-opacity:1;stroke:none"
     id="g2233"
     transform="translate(-11.076596,-1.1150967)">
    <path
       d="M 176.57988,37.972907 C 174.9871,39.007967 168.87448,51.953525 168.7783,53.533221 C 180.64186,73.113933 202.57955,40.078784 206.55381,24.980764 C 206.55381,24.980764 196.17124,43.179003 186.77317,43.526939 C 175.75676,43.93479 178.17554,36.935973 176.57988,37.972907 z "
       style="fill:#cecece;fill-opacity:1;fill-rule:evenodd;stroke:none;stroke-width:0.125;stroke-linecap:butt;stroke-linejoin:miter;stroke-miterlimit:4;stroke-dasharray:none;stroke-opacity:1"
       id="path9706" />
    <path
       d="M 22.47173,15.758997 L 15.81003,32.485756 C 15.81003,32.485756 19.89052,42.218104 26.49069,42.838195 C 41.61737,44.259359 58.45245,15.619537 63.19409,15.758997 C 67.93574,15.898457 77.55353,23.422298 82.6657,33.922656 C 89.39535,20.759071 97.58642,14.911225 111.16839,24.667015 C 119.07042,30.342966 135.58934,52.795226 145.47559,53.901349 C 156.18021,55.099037 165.37798,44.912817 169.81138,26.288239 C 163.67513,34.237468 161.1768,37.806706 155.0286,38.212082 C 148.68317,38.630462 149.241,39.885604 127.06684,16.874679 C 104.89268,-6.1362469 94.43317,4.8811053 87.87854,14.643316 C 86.41421,13.039524 78.99699,1.01863 70.05858,1.1156811 C 63.72511,1.1844483 53.17415,16.174161 46.86414,21.616488 C 40.30897,27.270272 36.37856,28.267647 33.99471,28.294944 C 30.30074,28.339067 25.84923,26.450798 22.47173,15.758997 z "
       style="fill:#cecece;fill-opacity:1;fill-rule:evenodd;stroke:none;stroke-width:0.125;stroke-linecap:butt;stroke-linejoin:round;stroke-miterlimit:4;stroke-dasharray:none;stroke-opacity:1"
       id="path7673" />
    <path
       d="M 76.60517,33.616604 C 59.9071,53.934058 59.23819,54.418087 50.46092,68.860929 C 41.68365,83.303771 39.35397,92.905012 43.4733,96.486252 C 47.62389,100.09467 55.01913,100.29382 64.07871,93.597586 C 76.68602,83.936084 93.51416,70.148169 98.13382,58.409876 C 99.33455,55.358876 77.4725,76.054153 68.69926,81.186233 C 63.43563,84.265304 56.36004,85.075126 52.55923,81.397725 C 44.80291,73.893236 79.52343,36.77475 76.60517,33.616604 z "
       style="fill:#cecece;fill-opacity:1;fill-rule:evenodd;stroke:none;stroke-width:0.125;stroke-linecap:butt;stroke-linejoin:miter;stroke-miterlimit:4;stroke-dasharray:none;stroke-opacity:1"
       id="path8693" />
    <path
       d="M 101.40617,64.709511 C 101.3713,63.070854 109.84351,50.554306 111.30784,50.066195 C 132.55351,64.354287 121.48844,101.10862 114.51543,104.3162 C 114.51543,104.3162 115.7357,88.557199 112.56298,78.655527 C 109.39026,68.753854 101.4411,66.351131 101.40617,64.709511 z "
       style="fill:#cecece;fill-opacity:1;fill-rule:evenodd;stroke:none;stroke-width:0.125;stroke-linecap:butt;stroke-linejoin:miter;stroke-miterlimit:4;stroke-dasharray:none;stroke-opacity:1"
       id="path9704" />
    <path
       d="M 212.01995,32.790058 C 210.0143,24.25611 219.12924,1.1854142 230.75546,1.1854142 C 259.78347,1.1854142 245.6869,47.473559 240.02956,64.570053 C 226.22301,100.34158 217.47477,153.8249 216.87918,158.42673 C 216.15214,164.0442 207.47903,179.09487 211.85861,154.24293 C 216.23819,129.39099 224.1069,100.38994 233.56074,66.549824 C 238.51906,48.801431 244.54954,17.14762 227.7868,17.100791 C 219.23545,16.991458 219.72047,23.025811 212.01995,32.790058 z "
       style="fill:#cecece;fill-opacity:1;fill-rule:evenodd;stroke:none;stroke-width:0.125;stroke-linecap:butt;stroke-linejoin:miter;stroke-miterlimit:4;stroke-dasharray:none;stroke-opacity:1"
       id="path2171" />
  </g>
  <path
     d="M 113.1092,188.72313 C 108.11972,186.22839 137.18849,118.03974 141.21397,140.99433 C 143.01865,151.28517 159.65464,122.45504 159.65464,122.45504 C 159.65464,122.45504 172.72089,98.68926 173.36188,100.76014 C 176.40683,110.59767 137.93115,174.30279 135.19856,158.25164 C 132.43682,142.02927 113.70088,189.01897 113.1092,188.72313 z "
     style="fill:#8c8a8c;fill-opacity:1;fill-rule:evenodd;stroke:none;stroke-width:0.125;stroke-linecap:butt;stroke-linejoin:miter;stroke-miterlimit:4;stroke-dasharray:none;stroke-opacity:1"
     id="path2252" />
  <path
     d="M 116.29255,185.51203 C 111.30307,183.01729 140.37184,114.82864 144.39732,137.78323 C 146.202,148.07407 162.83799,119.24394 162.83799,119.24394 C 162.83799,119.24394 175.90424,95.478162 176.54523,97.54904 C 179.59018,107.38657 141.1145,171.09169 138.38191,155.04054 C 135.62017,138.81817 116.88423,185.80787 116.29255,185.51203 z "
     style="fill:#cecece;fill-opacity:1;fill-rule:evenodd;stroke:none;stroke-width:0.125;stroke-linecap:butt;stroke-linejoin:miter;stroke-miterlimit:4;stroke-dasharray:none;stroke-opacity:1"
     id="path3158" />
  <path
     d="M 45.23557,212.92652 C 45.23557,212.92652 44.98904,198.33175 69.69165,167.3672 C 89.603454,142.40788 112.687,106.42424 112.687,106.42424 C 112.687,106.42424 108.90232,125.40534 92.083154,147.07582 C 72.4512,172.3704 45.23557,212.92652 45.23557,212.92652 z "
     style="fill:#8c8a8c;fill-opacity:1;fill-rule:evenodd;stroke:none;stroke-width:0.125;stroke-linecap:butt;stroke-linejoin:miter;stroke-miterlimit:4;stroke-dasharray:none;stroke-opacity:1"
     id="path2254" />
  <path
     d="M 48.446664,214.10987 C 48.446664,214.10987 48.200134,199.5151 72.902744,168.55055 C 92.814554,143.59123 115.8981,107.60759 115.8981,107.60759 C 115.8981,107.60759 112.11342,126.58869 95.294254,148.25917 C 75.662294,173.55375 48.446664,214.10987 48.446664,214.10987 z "
     style="fill:#cecece;fill-opacity:1;fill-rule:evenodd;stroke:none;stroke-width:0.125;stroke-linecap:butt;stroke-linejoin:miter;stroke-miterlimit:4;stroke-dasharray:none;stroke-opacity:1"
     id="path4129" />
</svg>
